<?xml version="1.0" standalone="no"?>
<!DOCTYPE svg PUBLIC "-//W3C//DTD SVG 20010904//EN"
 "http://www.w3.org/TR/2001/REC-SVG-20010904/DTD/svg10.dtd">
<svg version="1.0" xmlns="http://www.w3.org/2000/svg"
 width="2516.000000pt" height="3638.000000pt" viewBox="0 0 2516.000000 3638.000000"
 preserveAspectRatio="xMidYMid meet">

<g transform="translate(0.000000,3638.000000) scale(0.100000,-0.100000)"
fill="#276bd4" stroke="none">
<path d="M1067 36030 c-192 -34 -371 -126 -499 -257 -127 -129 -184 -225 -198
-338 -40 -318 -48 -1783 -60 -11733 l-11 -8583 67 -127 c131 -248 187 -311
400 -448 l139 -89 5110 -5 5109 -5 368 -1475 c202 -811 501 -2019 664 -2685
162 -665 432 -1757 599 -2425 167 -668 356 -1424 419 -1680 266 -1070 634
-2431 683 -2522 83 -154 285 -289 497 -332 110 -23 206 -2 371 82 131 66 171
106 285 283 396 620 1332 2135 1820 2944 209 347 227 375 241 375 23 0 203
-259 1571 -2250 470 -685 1137 -1657 1483 -2160 1052 -1532 1177 -1704 1384
-1910 163 -162 247 -198 477 -207 112 -5 157 -2 219 12 195 43 423 163 987
522 635 403 847 596 927 841 28 86 45 257 37 373 -12 196 -70 320 -364 779
-106 166 -1137 1740 -2349 3585 -671 1023 -1080 1650 -1245 1910 -201 318
-210 337 -165 354 12 4 211 22 442 40 231 18 526 41 655 51 129 11 597 49
1040 85 2012 163 2067 169 2242 235 144 54 301 194 363 325 41 86 55 152 55
253 -1 199 -91 367 -286 534 -253 215 -4467 3446 -7269 5573 -612 465 -1240
944 -2995 2285 -1990 1521 -2628 2004 -3135 2376 l-110 80 -119 200 c-1253
2100 -3180 3839 -5388 4865 -530 246 -1186 489 -1778 658 -462 132 -1112 255
-1592 302 l-126 13 -5 4105 c-3 2667 -9 4197 -16 4365 -10 257 -10 259 -41
324 -130 279 -448 489 -768 506 -48 3 -109 1 -135 -4z m1295 -11026 c1376
-257 2462 -677 3638 -1407 1599 -992 2956 -2486 3806 -4187 110 -222 113 -228
168 -440 334 -1298 706 -2761 706 -2782 0 -12 -20 -17 -102 -22 -274 -18
-1722 -26 -4982 -26 l-3568 0 5 3908 c5 3498 15 4964 33 4993 9 15 44 11 296
-37z"/>
</g>
</svg>
