<?xml version="1.0" standalone="no"?>
<!DOCTYPE svg PUBLIC "-//W3C//DTD SVG 20010904//EN"
 "http://www.w3.org/TR/2001/REC-SVG-20010904/DTD/svg10.dtd">
<svg version="1.0" xmlns="http://www.w3.org/2000/svg"
 width="512.000000pt" height="512.000000pt" viewBox="0 0 512.000000 512.000000"
 preserveAspectRatio="xMidYMid meet">

<g transform="translate(0.000000,512.000000) scale(0.100000,-0.100000)"
fill="#ffffff" stroke="none">
<path d="M2390 5034 c-335 -30 -635 -109 -905 -239 -161 -78 -154 -68 -109
-145 20 -36 38 -66 38 -67 1 -1 55 25 121 57 705 350 1556 310 2235 -104 101
-62 245 -168 320 -235 l45 -41 -55 7 c-101 12 -93 17 -105 -69 -6 -43 -9 -78
-6 -78 3 0 95 -14 205 -30 213 -31 233 -30 262 15 16 25 16 36 -11 228 -15
111 -31 206 -35 210 -6 7 -139 -9 -149 -19 -2 -2 0 -37 5 -78 9 -66 8 -73 -6
-63 -8 7 -51 43 -95 81 -182 156 -485 331 -730 421 -138 51 -341 102 -498 126
-126 18 -428 32 -527 23z"/>
<path d="M755 4421 l-180 -27 2 -35 c1 -19 4 -53 8 -76 6 -40 8 -43 38 -42 18
0 53 4 80 8 l47 8 -22 -28 c-140 -170 -186 -230 -247 -324 -238 -365 -376
-803 -397 -1259 -17 -385 70 -803 241 -1161 78 -161 68 -154 145 -109 36 20
66 38 67 38 1 1 -25 55 -57 121 -312 630 -316 1381 -11 2020 93 194 225 396
350 535 l41 45 -7 -55 c-12 -101 -17 -93 70 -105 54 -8 77 -8 77 -1 0 6 13 99
29 206 30 205 29 226 -11 254 -29 20 -45 19 -263 -13z"/>
<path d="M2332 4380 c-55 -33 -72 -73 -72 -166 l0 -82 -37 -6 c-46 -8 -207
-60 -269 -87 -25 -10 -47 -19 -49 -19 -2 0 -24 29 -49 64 -66 92 -124 115
-197 78 -41 -21 -279 -192 -322 -231 -35 -32 -50 -86 -37 -131 5 -18 28 -60
51 -92 35 -51 39 -61 27 -76 -7 -9 -34 -42 -59 -73 -25 -31 -67 -90 -94 -132
-27 -42 -54 -77 -60 -77 -7 0 -38 9 -70 20 -89 31 -129 26 -182 -23 -16 -14
-44 -85 -88 -219 -54 -163 -65 -205 -59 -236 11 -56 57 -96 139 -121 l70 -20
0 -191 0 -190 -97 -30 c-102 -32 -128 -52 -128 -98 0 -47 139 -448 163 -469
53 -49 89 -53 185 -23 35 11 67 20 71 20 4 0 29 -35 56 -77 27 -42 69 -101 94
-132 25 -31 52 -64 60 -73 12 -16 8 -26 -35 -88 -39 -58 -47 -77 -47 -115 0
-30 7 -55 20 -73 22 -29 275 -220 335 -252 75 -40 136 -18 205 76 34 46 52 63
63 58 80 -34 199 -75 263 -90 l77 -18 0 -81 c0 -92 18 -132 72 -165 30 -18 51
-20 244 -20 203 0 212 1 245 23 50 33 69 78 69 167 l0 76 78 18 c61 14 171 52
267 92 6 3 32 -25 58 -61 62 -86 129 -116 190 -84 62 33 332 237 348 263 11
18 19 50 19 77 0 37 -8 56 -45 109 -25 35 -45 67 -45 71 0 4 21 31 46 61 25
29 71 91 102 138 30 47 59 89 62 93 4 5 38 -1 75 -12 37 -12 81 -21 99 -21 41
0 91 32 111 70 22 42 145 423 145 446 -1 42 -49 72 -170 107 l-55 16 0 191 0
191 45 13 c120 36 160 73 160 150 0 38 -96 350 -126 407 -19 37 -69 69 -110
69 -17 0 -57 -9 -89 -20 -32 -11 -63 -20 -70 -20 -6 0 -36 37 -66 83 -30 45
-78 110 -106 144 -29 34 -53 66 -53 70 0 4 20 37 45 72 37 54 45 72 45 110 0
27 -8 59 -19 77 -19 31 -308 246 -355 264 -66 25 -120 -1 -183 -86 -26 -35
-47 -64 -48 -64 -1 0 -39 15 -86 34 -46 18 -126 44 -176 57 l-93 24 0 75 c0
89 -19 134 -69 167 -33 22 -42 23 -245 23 -193 0 -214 -2 -244 -20z m400 -229
c3 -87 4 -91 37 -125 27 -28 48 -38 105 -51 85 -19 212 -60 284 -92 60 -26
120 -30 161 -8 16 8 46 38 67 67 20 29 41 57 44 61 7 8 242 -156 248 -172 1
-4 -18 -38 -43 -75 -67 -100 -63 -142 25 -242 57 -64 120 -153 163 -225 14
-26 40 -58 57 -73 46 -38 84 -41 168 -12 53 18 74 22 77 13 19 -50 94 -281 92
-282 -1 -1 -27 -10 -57 -20 -148 -48 -144 -40 -146 -349 -1 -316 -4 -310 154
-361 31 -10 52 -22 49 -29 -2 -6 -23 -69 -47 -141 -23 -71 -44 -132 -46 -134
-2 -2 -38 6 -80 19 -122 36 -159 19 -232 -102 -26 -44 -76 -116 -112 -159
-104 -127 -110 -138 -110 -185 0 -34 9 -56 45 -108 25 -37 45 -70 45 -74 0 -4
-55 -46 -122 -94 l-121 -87 -51 67 c-81 105 -114 110 -276 42 -41 -17 -126
-45 -188 -61 -62 -16 -123 -36 -136 -44 -39 -26 -56 -74 -56 -159 l0 -76 -155
0 -155 0 0 75 c0 129 -31 164 -178 200 -56 14 -154 45 -217 70 -63 25 -122 45
-130 45 -40 0 -87 -32 -135 -94 l-51 -65 -124 91 -124 91 35 46 c63 83 78 136
50 189 -8 15 -44 63 -81 107 -36 44 -87 114 -112 155 -55 89 -79 117 -115 136
-36 19 -64 18 -133 -6 -32 -11 -64 -20 -71 -20 -8 0 -29 51 -55 132 -22 72
-43 137 -46 144 -3 7 20 20 64 35 141 46 140 44 138 359 -1 216 -3 248 -19
272 -19 29 -73 58 -144 79 -24 7 -41 17 -39 23 2 6 23 72 47 147 l42 136 77
-24 c125 -39 162 -22 248 119 28 45 74 110 102 143 137 162 141 197 40 327
l-29 36 126 92 c70 50 130 87 133 83 89 -129 106 -143 170 -143 31 0 78 13
142 39 53 21 143 51 200 65 57 14 115 34 129 44 42 31 60 79 60 160 l0 72 154
0 154 0 4 -89z"/>
<path d="M2440 3755 c-8 -2 -49 -9 -90 -15 -358 -58 -694 -309 -862 -645 -89
-177 -122 -320 -123 -530 0 -163 11 -239 56 -377 97 -300 319 -557 607 -702
85 -43 216 -87 317 -107 103 -21 349 -18 455 5 362 78 668 314 834 644 84 168
121 329 121 532 0 157 -12 236 -56 372 -96 296 -319 557 -599 698 -167 84
-307 119 -505 125 -77 2 -147 2 -155 0z m266 -166 c445 -62 807 -418 879 -864
19 -114 19 -216 0 -330 -92 -565 -627 -952 -1190 -860 -329 53 -614 263 -763
560 -288 577 9 1268 628 1459 144 45 294 56 446 35z"/>
<path d="M2150 2902 c-19 -15 -34 -70 -96 -348 -40 -181 -74 -335 -74 -341 0
-9 22 -13 80 -13 l79 0 17 80 17 80 107 0 107 0 7 -42 c4 -24 11 -60 17 -80
l10 -38 79 0 c44 0 80 4 80 8 0 20 -141 640 -151 665 -17 41 -37 47 -152 47
-86 0 -109 -3 -127 -18z m169 -244 c12 -57 25 -111 27 -120 5 -16 -3 -18 -66
-18 -54 0 -71 3 -67 13 2 6 15 60 27 120 18 84 27 107 40 107 13 0 22 -22 39
-102z"/>
<path d="M2740 2840 l0 -80 60 0 60 0 0 -200 0 -200 -60 0 -60 0 0 -80 0 -80
200 0 200 0 0 80 0 80 -60 0 -60 0 0 200 0 200 60 0 60 0 0 80 0 80 -200 0
-200 0 0 -80z"/>
<path d="M4650 3745 c-30 -19 -58 -35 -62 -37 -4 -2 20 -57 52 -123 274 -553
312 -1195 105 -1795 -48 -141 -168 -381 -254 -510 -72 -109 -220 -295 -227
-287 -3 3 0 33 5 68 6 35 7 66 3 70 -13 13 -152 26 -152 15 0 -6 -13 -99 -29
-206 -18 -122 -25 -203 -20 -217 4 -12 20 -30 34 -39 25 -16 36 -16 228 11
111 15 206 31 210 35 7 6 -9 139 -18 149 -3 2 -37 -1 -77 -6 -40 -6 -74 -10
-75 -9 -2 1 34 45 78 97 166 193 343 495 433 740 51 139 103 344 128 504 17
112 21 184 21 360 0 176 -4 248 -21 360 -28 181 -81 378 -143 535 -54 139
-139 312 -154 316 -6 1 -35 -13 -65 -31z"/>
<path d="M719 1049 c-53 -20 -55 -39 -24 -261 15 -112 31 -207 35 -211 6 -7
139 9 149 19 2 2 0 37 -5 78 l-10 74 36 -29 c19 -16 71 -59 115 -95 266 -219
664 -409 1005 -482 581 -125 1136 -55 1660 208 66 33 120 63 120 66 0 9 -71
134 -76 134 -3 0 -37 -18 -77 -40 -215 -118 -500 -208 -792 -251 -133 -20
-472 -17 -615 5 -461 71 -889 269 -1220 565 l-35 32 55 -7 c101 -13 93 -18
105 69 6 42 10 77 9 77 -2 0 -308 44 -379 54 -16 2 -42 0 -56 -5z"/>
</g>
</svg>
