<svg xmlns="http://www.w3.org/2000/svg" width="256" height="256" viewBox="0 0 256 256" version="1.1">
	<path d="M 114 0.626 C 64.478 6.896, 23.612 39.574, 7.232 86 C 1.966 100.925, 0.568 109.736, 0.568 128 C 0.568 145.967, 1.848 154.270, 6.927 169.268 C 9.947 178.188, 16.189 191.133, 20.524 197.472 C 22.874 200.908, 23.101 201.853, 22.203 204.472 C 20.019 210.838, 19.863 214.017, 21.464 219.523 C 25.239 232.508, 37.880 238.483, 51.604 233.770 C 54.352 232.826, 55.214 233.051, 59.104 235.721 C 82.132 251.527, 116.254 258.929, 146 254.570 C 187.456 248.495, 223.738 222.379, 242.430 185.160 C 247.572 174.921, 252.653 159.065, 254.019 149 C 254.653 144.325, 255.583 139.719, 256.086 138.764 C 257.364 136.337, 257.284 115.706, 256 116.500 C 255.401 116.870, 254.991 115.589, 254.978 113.309 C 254.905 100.379, 245.093 72.764, 235.720 59.104 C 233.051 55.215, 232.826 54.352, 233.770 51.604 C 235.982 45.162, 236.142 42.001, 234.536 36.477 C 230.771 23.526, 218.123 17.521, 204.472 22.203 C 201.853 23.101, 200.908 22.874, 197.472 20.524 C 186.697 13.152, 168.453 5.735, 153 2.444 C 145.694 0.888, 121.017 -0.263, 114 0.626 M 109.729 16.442 C 93.747 19.272, 78.643 25.245, 65 34.131 C 56.637 39.578, 39.578 56.637, 34.131 65 C 10.463 101.338, 8.739 146.352, 29.590 183.506 L 34.083 191.511 41.792 191.506 C 46.031 191.502, 50.175 191.841, 51 192.258 C 52.110 192.819, 70.812 174.702, 122.859 122.646 C 189.919 55.576, 193.161 52.168, 191.986 49.975 C 191.198 48.502, 190.928 45.246, 191.237 40.936 L 191.719 34.200 183.609 29.649 C 174.085 24.303, 164.769 20.656, 153.578 17.892 C 142.951 15.268, 120.545 14.527, 109.729 16.442 M 208.635 37.073 C 203.181 41.363, 206.328 50, 213.345 50 C 217.085 50, 219.491 47.914, 220.524 43.775 C 221.075 41.570, 220.628 40.474, 218.179 38.025 C 214.623 34.470, 212.246 34.232, 208.635 37.073 M 133.141 133.354 C 66.081 200.424, 62.839 203.832, 64.014 206.025 C 64.798 207.491, 65.072 210.746, 64.769 214.988 L 64.292 221.649 72.396 226.284 C 109.068 247.261, 154.618 245.565, 191 221.869 C 199.363 216.422, 216.422 199.363, 221.869 191 C 245.537 154.662, 247.258 109.063, 226.342 72.496 L 221.764 64.493 214.132 64.496 C 209.934 64.498, 205.825 64.159, 205 63.742 C 203.890 63.181, 185.188 81.298, 133.141 133.354 M 0.378 128 C 0.378 134.325, 0.541 136.912, 0.739 133.750 C 0.937 130.587, 0.937 125.412, 0.739 122.250 C 0.541 119.087, 0.378 121.675, 0.378 128 M 37.073 208.635 C 34.232 212.246, 34.470 214.623, 38.025 218.179 C 40.474 220.628, 41.570 221.075, 43.775 220.524 C 47.914 219.491, 50 217.085, 50 213.345 C 50 206.328, 41.363 203.181, 37.073 208.635" stroke="none" fill="#000000" fill-rule="evenodd"/>
</svg>