<svg xmlns="http://www.w3.org/2000/svg" width="256" height="256" viewBox="0 0 256 256" version="1.1">
	<path d="M 114 1.109 C 84.541 4.446, 59.252 16.714, 37.983 37.983 C 15.832 60.133, 4.277 84.693, 0.936 116.721 C -1.694 141.943, 4.537 169.973, 17.743 192.322 C 22.878 201.012, 23.109 201.692, 22.083 205.116 C 16.441 223.948, 32.087 239.548, 50.949 233.897 C 54.406 232.861, 55.049 233.052, 61.565 237.046 C 74.683 245.087, 92.420 251.670, 107.500 254.095 C 118.845 255.920, 139.616 255.693, 150.500 253.626 C 177.518 248.496, 198.722 237.312, 218.017 218.017 C 233.205 202.829, 242.642 187.734, 248.939 168.551 C 252.198 158.624, 255 144.938, 255 138.949 C 255 136.842, 255.450 134.840, 256 134.500 C 256.550 134.160, 257 130.732, 257 126.882 C 257 123.032, 256.614 120.121, 256.141 120.413 C 255.669 120.704, 254.989 117.422, 254.630 113.118 C 253.314 97.340, 246.521 77.200, 237.507 62.353 C 233.062 55.032, 232.863 54.401, 233.901 50.936 C 239.557 32.059, 223.941 16.443, 205.064 22.099 C 201.593 23.139, 200.972 22.940, 193.448 18.365 C 178.331 9.175, 159.808 3.081, 140.789 1.041 C 129.866 -0.130, 124.826 -0.117, 114 1.109 M 107.655 16.539 C 79.751 21.785, 54.352 37.608, 37.090 60.500 C 29.946 69.975, 21.584 87.353, 18.325 99.500 C 15.878 108.621, 15.640 111.125, 15.618 128 C 15.596 144.867, 15.825 147.349, 18.206 156.119 C 20.940 166.186, 25.945 177.963, 31.160 186.599 L 34.239 191.698 40.870 191.599 C 44.516 191.545, 48.642 191.822, 50.037 192.216 C 52.366 192.873, 58.323 187.181, 122.779 122.716 L 192.983 52.500 191.881 48.520 C 191.275 46.330, 191.047 42.259, 191.374 39.472 L 191.970 34.404 186.735 31.243 C 177.849 25.876, 166.173 20.933, 156.119 18.281 C 143.897 15.058, 120.088 14.202, 107.655 16.539 M 208.389 37.342 C 203.032 41.950, 206.073 50.333, 213.103 50.333 C 216.924 50.333, 221 46.238, 221 42.399 C 221 39.193, 216.807 35, 213.601 35 C 212.232 35, 209.886 36.054, 208.389 37.342 M 133.221 133.284 L 63.017 203.500 64.119 207.480 C 64.725 209.670, 64.953 213.741, 64.626 216.528 L 64.030 221.596 69.265 224.757 C 78.030 230.051, 89.759 235.045, 99.881 237.794 C 108.651 240.175, 111.133 240.404, 128 240.382 C 144.783 240.360, 147.407 240.114, 156.277 237.730 C 195.995 227.053, 227.053 195.995, 237.730 156.277 C 240.114 147.407, 240.360 144.783, 240.382 128 C 240.404 111.133, 240.175 108.651, 237.794 99.881 C 235.060 89.814, 230.055 78.037, 224.840 69.401 L 221.761 64.302 215.130 64.401 C 211.484 64.455, 207.358 64.178, 205.963 63.784 C 203.634 63.127, 197.677 68.819, 133.221 133.284 M 0.336 128 C 0.336 132.125, 0.513 133.813, 0.728 131.750 C 0.944 129.688, 0.944 126.313, 0.728 124.250 C 0.513 122.188, 0.336 123.875, 0.336 128 M 40.357 206.001 C 37.566 207.115, 35 210.836, 35 213.768 C 35 216.832, 39.264 221, 42.399 221 C 46.238 221, 50.333 216.924, 50.333 213.103 C 50.333 207.930, 45.012 204.143, 40.357 206.001" stroke="none" fill="#276bd4" fill-rule="evenodd"/>
</svg>