<?xml version="1.0" standalone="no"?>
<!DOCTYPE svg PUBLIC "-//W3C//DTD SVG 20010904//EN"
 "http://www.w3.org/TR/2001/REC-SVG-20010904/DTD/svg10.dtd">
<svg version="1.0" xmlns="http://www.w3.org/2000/svg"
 width="256.000000pt" height="256.000000pt" viewBox="0 0 256.000000 256.000000"
 preserveAspectRatio="xMidYMid meet">

<g transform="translate(0.000000,256.000000) scale(0.100000,-0.100000)"
fill="#005cc1" stroke="none">
<path d="M915 2307 c-22 -8 -54 -21 -71 -30 -41 -21 -112 -100 -131 -145 -9
-20 -35 -147 -57 -282 l-42 -245 -83 -5 c-75 -5 -86 -9 -107 -33 -31 -36 -30
-71 1 -102 21 -22 33 -25 90 -25 61 0 65 -1 65 -22 -1 -56 -150 -908 -164
-936 -25 -49 -69 -74 -148 -82 -83 -9 -103 -24 -103 -80 0 -62 21 -75 113 -75
92 1 148 23 216 85 78 72 82 87 171 619 l81 486 88 5 c77 4 90 8 107 29 26 31
24 64 -5 98 -21 24 -32 28 -93 31 l-69 4 37 224 c24 142 45 237 56 257 26 44
77 70 151 78 38 4 70 13 80 23 22 22 22 91 -1 113 -22 22 -127 28 -182 10z"/>
<path d="M1228 1819 c-40 -41 -118 -205 -145 -307 -37 -139 -37 -325 0 -465
29 -109 118 -291 154 -314 36 -24 89 -9 109 29 19 37 14 58 -31 133 -133 221
-138 526 -14 745 57 100 61 109 54 139 -8 37 -24 50 -68 58 -29 4 -40 1 -59
-18z"/>
<path d="M2123 1830 c-29 -12 -46 -46 -40 -79 3 -14 22 -53 41 -85 140 -233
140 -539 0 -772 -19 -32 -38 -71 -41 -86 -12 -61 56 -105 114 -74 41 21 127
189 160 313 22 82 26 120 26 233 0 167 -27 282 -100 422 -68 133 -95 154 -160
128z"/>
<path d="M1465 1655 c-14 -13 -25 -36 -25 -51 0 -16 35 -82 90 -170 50 -79 90
-148 90 -154 0 -6 -40 -75 -90 -154 -55 -88 -90 -154 -90 -170 0 -32 40 -76
69 -76 47 0 68 20 136 129 37 62 72 110 76 109 5 -2 39 -52 77 -112 74 -120
98 -138 152 -116 32 13 55 58 45 90 -4 12 -45 82 -91 156 -46 73 -84 138 -84
144 0 6 39 72 87 148 69 109 87 145 87 176 1 41 -29 76 -64 76 -46 0 -68 -21
-134 -129 -38 -61 -72 -111 -76 -111 -4 0 -38 50 -75 111 -38 60 -76 114 -86
120 -31 16 -69 10 -94 -16z"/>
</g>
</svg>
