<?xml version="1.0" standalone="no"?>
<!DOCTYPE svg PUBLIC "-//W3C//DTD SVG 20010904//EN"
 "http://www.w3.org/TR/2001/REC-SVG-20010904/DTD/svg10.dtd">
<svg version="1.0" xmlns="http://www.w3.org/2000/svg"
 width="596.000000pt" height="114.000000pt" viewBox="0 0 596.000000 114.000000"
 preserveAspectRatio="xMidYMid meet">

<g transform="translate(0.000000,114.000000) scale(0.100000,-0.100000)"
fill="#C444FF" stroke="none">
<path d="M306 1059 c-3 -17 -6 -46 -6 -64 0 -25 -8 -38 -35 -59 -41 -32 -57
-79 -44 -135 11 -48 6 -61 -95 -285 -89 -196 -114 -275 -99 -308 9 -20 17 -9
76 111 37 73 72 140 78 147 21 25 58 15 103 -26 24 -22 47 -40 53 -40 5 0 27
18 48 40 41 42 82 53 103 27 6 -7 41 -73 78 -147 59 -117 68 -130 76 -110 16
43 5 78 -95 300 -96 214 -107 245 -95 286 13 50 -6 108 -47 139 -30 24 -34 33
-40 91 -7 58 -10 64 -30 64 -17 0 -24 -7 -29 -31z m78 -170 c51 -40 17 -119
-52 -119 -62 0 -86 80 -36 119 15 12 34 21 44 21 10 0 29 -9 44 -21z m37 -254
c21 -47 39 -90 39 -95 0 -21 -51 -9 -83 20 -19 17 -39 30 -44 30 -5 0 -19 -13
-31 -30 -18 -23 -30 -30 -58 -30 -42 0 -42 1 13 116 l35 74 45 0 44 0 40 -85z"/>
<path d="M1060 1044 c-169 -36 -262 -173 -262 -388 -1 -188 65 -306 206 -372
43 -20 67 -24 156 -24 122 0 178 20 254 90 56 52 74 103 83 232 l6 98 -156 0
-157 0 0 -55 0 -55 91 0 91 0 -7 -32 c-17 -75 -58 -132 -112 -154 -48 -21
-130 -17 -179 7 -96 46 -140 141 -132 283 9 170 90 265 226 266 64 0 97 -16
146 -71 36 -39 42 -42 102 -47 71 -5 72 -5 52 59 -14 49 -69 114 -117 138 -80
41 -180 49 -291 25z"/>
<path d="M4023 888 c4 -95 7 -275 7 -400 l0 -228 70 0 70 0 0 168 c0 92 -3
272 -7 400 l-6 232 -70 0 -70 0 6 -172z"/>
<path d="M1620 655 l0 -395 70 0 70 0 0 283 c0 330 -14 328 130 23 54 -114
103 -204 115 -212 15 -10 34 -11 65 -6 l45 8 100 226 c55 125 103 230 108 234
4 4 7 -119 7 -274 l0 -282 70 0 70 0 0 395 0 396 -90 -3 -90 -3 -68 -145 c-38
-80 -90 -196 -117 -257 -27 -62 -52 -113 -55 -113 -7 0 -60 110 -188 390 l-58
125 -92 3 -92 3 0 -396z"/>
<path d="M2610 655 l0 -395 75 0 75 0 0 170 0 170 175 0 175 0 0 -170 0 -170
75 0 75 0 0 395 0 395 -75 0 -75 0 0 -160 0 -160 -175 0 -175 0 0 160 0 160
-75 0 -75 0 0 -395z"/>
<path d="M3540 833 c-69 -25 -145 -106 -166 -179 -43 -150 25 -317 154 -376
60 -27 164 -26 231 2 53 23 145 112 138 133 -8 26 -80 19 -140 -13 -100 -53
-187 -36 -244 49 -42 62 -45 61 193 61 l217 0 -5 58 c-9 90 -28 140 -75 192
-74 82 -194 111 -303 73z m170 -108 c34 -17 80 -74 80 -98 0 -15 -17 -17 -150
-17 -98 0 -150 4 -150 10 0 22 30 68 60 94 25 20 42 26 81 26 28 0 63 -7 79
-15z"/>
<path d="M4558 840 c-26 -3 -61 -16 -77 -28 -37 -27 -41 -27 -41 -3 0 25 -19
31 -91 31 l-59 0 0 -400 0 -400 75 0 75 0 0 130 c0 72 2 130 4 130 2 0 25 -10
52 -22 123 -54 284 4 346 126 29 57 36 184 14 260 -18 61 -76 136 -125 160
-32 16 -111 23 -173 16z m103 -133 c48 -32 69 -79 69 -155 0 -76 -17 -119 -59
-155 -43 -36 -133 -39 -176 -5 -41 32 -65 93 -65 166 0 119 43 172 140 172 43
0 66 -6 91 -23z"/>
<path d="M5160 841 c-89 -29 -166 -97 -191 -167 -8 -23 -14 -77 -14 -129 1
-103 17 -145 82 -207 109 -106 271 -109 387 -8 33 29 66 77 66 96 0 3 -26 5
-58 2 -40 -3 -69 -11 -92 -28 -40 -29 -125 -38 -171 -20 -35 15 -89 83 -89
112 0 17 13 18 216 18 l217 0 -7 69 c-3 37 -13 85 -21 105 -21 50 -80 113
-129 138 -44 23 -153 33 -196 19z m140 -116 c34 -17 80 -74 80 -98 0 -15 -17
-17 -150 -17 -98 0 -150 4 -150 10 0 22 30 68 60 94 25 20 42 26 81 26 28 0
63 -7 79 -15z"/>
<path d="M5623 838 c-4 -7 -9 -140 -11 -295 l-3 -283 73 0 73 0 -3 189 -3 188
28 33 c29 35 78 60 117 60 33 0 36 8 29 69 -5 45 -9 51 -29 51 -38 0 -77 -19
-116 -58 l-38 -36 0 37 c0 40 -2 42 -67 51 -28 4 -44 2 -50 -6z"/>
</g>
</svg>
