<?xml version="1.0" standalone="no"?>
<!DOCTYPE svg PUBLIC "-//W3C//DTD SVG 20010904//EN"
 "http://www.w3.org/TR/2001/REC-SVG-20010904/DTD/svg10.dtd">
<svg version="1.0" xmlns="http://www.w3.org/2000/svg"
 width="410.000000pt" height="171.000000pt" viewBox="0 0 410.000000 171.000000"
 preserveAspectRatio="xMidYMid meet">

<g transform="translate(0.000000,171.000000) scale(0.100000,-0.100000)"
fill="#005cc1" stroke="none">
<path d="M897 1563 c-3 -4 -60 -147 -127 -318 -67 -170 -128 -322 -136 -337
-18 -35 -52 -58 -86 -58 -21 0 -28 -5 -28 -20 0 -19 7 -20 120 -20 113 0 120
1 120 20 0 14 -7 20 -23 20 -23 0 -57 27 -57 46 0 5 12 42 26 82 l27 72 156
-2 155 -3 33 -84 c37 -95 33 -111 -23 -111 -27 0 -34 -4 -34 -20 0 -19 7 -20
150 -20 143 0 150 1 150 20 0 16 -7 20 -37 20 -21 0 -43 4 -50 8 -6 4 -74 165
-151 357 -116 292 -142 351 -159 353 -12 2 -23 0 -26 -5z m62 -303 c34 -85 61
-158 61 -162 0 -5 -58 -8 -130 -8 -93 0 -130 3 -130 12 0 24 125 327 132 320
4 -4 34 -77 67 -162z"/>
<path d="M140 1523 c0 -21 5 -23 49 -23 27 0 61 -4 75 -10 l26 -10 0 -455 0
-455 -26 -10 c-14 -6 -48 -10 -75 -10 -46 0 -49 -2 -49 -25 l0 -25 395 0 c308
0 397 3 400 12 2 7 12 96 22 197 16 151 16 184 5 188 -19 8 -22 2 -33 -68 -24
-154 -78 -233 -180 -263 -65 -20 -289 -22 -307 -4 -9 9 -12 125 -12 459 0 403
2 448 17 460 10 9 48 15 100 18 77 3 84 5 81 23 -3 19 -12 20 -246 21 l-242 2
0 -22z"/>
<path d="M2910 1523 c0 -20 5 -23 44 -23 90 0 94 -4 249 -239 79 -119 146
-222 151 -228 8 -14 -222 -364 -277 -421 -32 -33 -105 -62 -159 -62 -23 0 -28
-4 -28 -25 0 -22 4 -25 35 -25 34 0 34 -1 28 -32 -12 -63 -43 -141 -69 -176
-15 -20 -51 -46 -83 -61 -54 -25 -62 -26 -244 -26 -156 0 -189 3 -197 15 -5 8
-10 112 -10 233 l0 217 104 0 c56 0 116 -5 133 -10 36 -13 63 -57 63 -103 0
-45 9 -67 26 -67 12 0 14 36 14 205 0 194 -1 205 -19 205 -16 0 -19 -9 -23
-60 -7 -98 -44 -120 -205 -120 l-93 0 0 199 c0 168 2 202 16 215 13 13 43 16
169 16 169 0 237 -10 287 -43 43 -29 77 -99 91 -187 9 -57 14 -70 29 -70 22 0
22 -8 -2 185 -11 88 -20 161 -20 162 0 2 -160 3 -355 3 -331 0 -355 1 -355 18
0 9 -7 82 -15 162 -8 80 -15 148 -15 153 0 4 -210 6 -467 5 l-468 -3 -11 -130
c-18 -197 -17 -217 4 -213 13 3 19 18 25 73 15 138 43 187 119 210 57 17 224
20 248 5 13 -8 15 -70 18 -437 1 -235 0 -438 -3 -450 -7 -29 -53 -43 -146 -43
-75 0 -79 -1 -79 -22 l0 -23 290 0 290 0 0 22 c0 22 -4 23 -74 23 -76 0 -125
12 -138 33 -4 7 -8 208 -8 448 0 325 3 438 12 447 15 15 188 16 243 1 79 -21
115 -83 131 -219 l7 -60 -57 0 c-52 0 -56 -2 -56 -24 0 -22 4 -24 65 -28 36
-2 71 -10 77 -16 18 -18 19 -895 1 -913 -6 -6 -41 -14 -77 -16 -61 -5 -66 -7
-66 -29 l0 -24 440 0 439 0 6 33 c4 17 16 95 28 172 l23 140 132 3 c124 2 132
4 132 23 0 12 -10 23 -27 29 -46 16 -58 26 -67 54 -9 23 2 43 105 196 63 93
117 169 120 170 3 0 62 -84 129 -186 137 -205 138 -211 62 -228 -33 -8 -42
-14 -42 -31 0 -21 3 -21 213 -20 205 0 212 1 212 20 0 17 -9 21 -63 26 -40 4
-69 13 -83 25 -12 10 -95 131 -186 268 l-164 249 98 145 c133 196 162 228 226
247 28 8 63 15 79 15 23 0 28 4 28 25 l0 25 -182 -2 c-178 -3 -183 -4 -186
-24 -3 -18 4 -23 32 -28 35 -7 66 -37 66 -65 0 -8 -42 -77 -92 -152 -71 -104
-96 -135 -105 -126 -6 7 -54 77 -107 157 -89 134 -94 145 -79 162 9 10 31 20
49 24 26 5 34 11 34 28 0 21 -2 21 -210 21 l-210 0 0 -22z"/>
</g>
</svg>
