<?xml version="1.0" standalone="no"?>
<!DOCTYPE svg PUBLIC "-//W3C//DTD SVG 20010904//EN"
 "http://www.w3.org/TR/2001/REC-SVG-20010904/DTD/svg10.dtd">
<svg version="1.0" xmlns="http://www.w3.org/2000/svg"
 width="395.000000pt" height="404.000000pt" viewBox="0 0 395.000000 404.000000"
 preserveAspectRatio="xMidYMid meet">

<g transform="translate(0.000000,404.000000) scale(0.100000,-0.100000)"
fill="#000000" stroke="none">
<path d="M350 3120 c-16 -16 -18 -25 -10 -40 10 -20 23 -20 621 -20 l611 0
-26 -30 c-51 -62 -56 -101 -57 -504 -1 -204 -4 -421 -8 -483 l-6 -111 -89 104
c-97 115 -149 152 -222 160 -180 22 -305 -148 -240 -324 15 -42 117 -217 265
-452 190 -304 218 -353 289 -498 42 -87 83 -159 95 -166 17 -11 133 -15 551
-19 297 -3 539 -2 552 3 32 13 45 43 98 220 137 469 136 459 143 870 6 342 6
345 -17 397 -29 69 -84 118 -156 139 -52 15 -72 15 -136 -1 -21 -5 -27 -1 -38
25 -17 40 -80 94 -129 108 -49 15 -126 15 -153 1 -19 -10 -25 -6 -56 30 -19
23 -57 53 -85 67 -42 22 -61 25 -113 22 l-63 -4 -3 171 -3 172 -32 51 -32 52
877 2 877 3 3 27 c3 22 -2 30 -23 38 -17 7 -590 10 -1646 10 -1612 0 -1619 0
-1639 -20z m1413 -172 c49 -26 48 -17 45 -450 l-3 -406 24 -26 c33 -35 79 -35
112 0 23 24 24 33 29 191 5 158 6 166 29 184 30 25 62 24 95 -2 l26 -20 0
-210 c0 -213 4 -239 39 -266 26 -20 70 -15 95 10 21 22 23 33 29 187 5 162 6
165 32 187 34 30 70 29 100 -2 25 -24 25 -24 25 -240 0 -216 0 -216 25 -240
32 -33 75 -33 108 1 25 25 26 30 29 176 3 144 4 151 27 169 31 26 83 25 107
-2 18 -20 19 -38 16 -353 -2 -223 -8 -354 -17 -401 -7 -38 -43 -173 -79 -299
-36 -126 -66 -230 -66 -232 0 -2 -207 -4 -460 -4 l-460 0 -74 148 c-41 81
-124 226 -185 322 -266 422 -334 540 -339 591 -4 48 -4 49 31 64 28 12 42 12
60 4 14 -6 100 -98 191 -205 158 -184 168 -194 202 -194 42 0 69 13 79 37 5
10 11 293 14 629 6 654 5 634 56 654 28 12 33 12 58 -2z"/>
</g>
</svg>
