<?xml version="1.0" standalone="no"?>
<!DOCTYPE svg PUBLIC "-//W3C//DTD SVG 20010904//EN"
 "http://www.w3.org/TR/2001/REC-SVG-20010904/DTD/svg10.dtd">
<svg version="1.0" xmlns="http://www.w3.org/2000/svg"
 width="512.000000pt" height="512.000000pt" viewBox="0 0 512.000000 512.000000"
 preserveAspectRatio="xMidYMid meet">

<g transform="translate(0.000000,512.000000) scale(0.100000,-0.100000)"
fill="#ffffff" stroke="none">
<path d="M2810 5114 c-14 -2 -56 -9 -95 -15 -160 -26 -359 -107 -510 -209
-155 -105 -320 -289 -406 -452 l-40 -78 -577 0 c-629 0 -635 0 -752 -58 -70
-35 -177 -142 -212 -212 -61 -124 -58 -51 -58 -1490 0 -1133 2 -1324 15 -1373
48 -185 187 -324 372 -372 48 -13 166 -15 730 -15 l673 0 0 -120 c0 -118 0
-120 -23 -120 -39 0 -139 -30 -197 -58 -70 -35 -177 -142 -212 -212 -32 -65
-58 -160 -58 -212 0 -49 16 -81 50 -101 26 -16 107 -17 944 -17 l916 0 31 28
c110 98 -34 416 -232 514 -57 28 -157 58 -196 58 -23 0 -23 2 -23 120 l0 120
673 0 c733 0 728 0 847 58 70 35 177 142 212 212 52 106 58 151 58 442 l0 268
38 19 c130 66 205 229 172 372 -17 76 -48 123 -134 209 l-76 74 0 711 c0 775
1 766 -58 885 -15 30 -56 84 -92 120 -104 103 -221 150 -380 150 l-85 1 -45
81 c-182 331 -495 564 -867 649 -84 19 -342 34 -403 23z m299 -209 c245 -40
479 -164 637 -339 474 -521 356 -1326 -247 -1691 -199 -120 -464 -176 -691
-145 -254 34 -467 138 -643 315 -431 430 -431 1120 0 1550 251 251 600 366
944 310z m-1433 -777 c-28 -136 -38 -242 -32 -358 5 -109 13 -162 42 -292 l6
-28 -476 0 c-529 0 -514 2 -536 -66 -16 -49 11 -104 60 -121 25 -9 175 -12
533 -12 l498 -1 17 -32 c187 -346 515 -591 904 -674 114 -25 370 -25 490 -1
116 23 225 60 326 109 l84 41 426 -425 c363 -362 434 -428 475 -443 46 -17 47
-18 47 -61 l0 -44 -2090 0 -2090 0 0 1088 c0 1183 -2 1140 55 1223 36 51 88
90 150 111 45 16 104 17 584 18 l534 0 -7 -32z m2687 4 c57 -25 123 -91 151
-151 21 -45 21 -56 24 -661 l2 -615 -235 235 -235 235 39 80 c46 94 84 204
108 318 24 111 24 390 0 497 -9 41 -17 79 -17 84 0 15 114 -1 163 -22z m-11
-1529 c346 -348 397 -403 403 -435 10 -52 -1 -86 -39 -124 -38 -38 -72 -49
-124 -39 -32 6 -87 57 -435 404 l-398 397 93 96 c51 52 95 96 98 97 3 0 184
-178 402 -396z m186 -1210 c-3 -104 -8 -137 -25 -174 -27 -60 -92 -125 -152
-153 l-46 -21 -1865 0 -1865 0 -46 21 c-60 28 -125 93 -152 153 -17 37 -22 70
-25 174 l-4 127 2092 0 2092 0 -4 -127z m-1788 -673 l0 -120 -300 0 -300 0 0
120 0 120 300 0 300 0 0 -120z m277 -335 c66 -20 127 -65 163 -122 17 -26 30
-51 30 -55 0 -4 -346 -8 -770 -8 -424 0 -770 4 -770 8 0 20 61 102 95 128 83
63 86 63 671 64 441 0 539 -2 581 -15z"/>
<path d="M2830 4694 c-379 -70 -630 -288 -736 -641 -35 -116 -40 -315 -10
-433 83 -328 326 -572 656 -656 102 -26 306 -26 404 0 170 45 305 123 426 247
335 342 331 888 -10 1229 -162 162 -359 248 -590 255 -63 2 -126 2 -140 -1z
m315 -228 c107 -34 194 -87 274 -167 79 -79 132 -166 168 -274 23 -69 27 -96
27 -205 0 -109 -4 -136 -27 -205 -36 -108 -89 -195 -168 -274 -79 -79 -166
-132 -274 -168 -112 -37 -284 -39 -395 -5 -496 155 -653 766 -289 1131 181
180 444 244 684 167z"/>
<path d="M2905 4261 c-91 -38 -74 -171 24 -186 167 -26 240 -99 266 -266 7
-45 41 -78 88 -86 32 -5 41 -1 72 30 39 39 42 58 25 148 -26 136 -122 263
-242 319 -90 42 -187 59 -233 41z"/>
<path d="M713 2952 c-12 -9 -27 -32 -34 -49 -16 -47 13 -104 61 -120 49 -17
771 -17 820 0 23 8 41 24 54 48 23 42 17 79 -19 115 l-24 24 -418 0 c-381 0
-420 -2 -440 -18z"/>
<path d="M713 2472 c-12 -9 -27 -32 -34 -49 -16 -47 13 -104 61 -120 37 -13
809 -19 869 -7 82 17 112 110 54 168 l-26 26 -451 0 c-412 0 -453 -2 -473 -18z"/>
<path d="M1943 2466 c-23 -20 -28 -32 -28 -71 0 -39 5 -51 28 -71 53 -45 131
-27 157 35 39 94 -79 174 -157 107z"/>
</g>
</svg>
