<svg width="200" height="200" viewBox="30 20 140 140" xmlns="http://www.w3.org/2000/svg">
  <polygon points="100,30 150,60 150,120 100,150 50,120 50,60"
           fill="none" stroke="black" stroke-width="2"/>

  <path d="M110,37 A13,13 0 0,1 90,37" fill="none" stroke="red" stroke-width="3"/>
  <path d="M149,70 A10,10 0 0,1 140,55" fill="none" stroke="green" stroke-width="3"/>
  <path d="M140,125 A10,10 0 0,1 149,110" fill="none" stroke="blue" stroke-width="3"/>
  <path d="M90,142.8 A13,13 0 0,1 110,142.8" fill="none" stroke="orange" stroke-width="3"/>
  <path d="M51,110 A10,10 0 0,1 60,125" fill="none" stroke="deepskyblue" stroke-width="3"/>
  <path d="M60,55 A10,10 0 0,1 51,70" fill="none" stroke="gold" stroke-width="3"/>
</svg>
