<svg width="200" height="200" viewBox="0 0 200 200" xmlns="http://www.w3.org/2000/svg">
  <polygon points="100,30 170,75 140,150 60,150 30,75" fill="none" stroke="black" stroke-width="2"/>

  <text x="15" y="75" text-anchor="start" fill="red" font-size="12" font-family="Arial">A</text>
  <text x="100" y="25" text-anchor="middle" fill="red" font-size="12" font-family="Arial">B</text>
  <text x="175" y="75" text-anchor="start" fill="red" font-size="12" font-family="Arial">C</text>
  <text x="145" y="163" text-anchor="middle" fill="red" font-size="12" font-family="Arial">D</text>
  <text x="55" y="163" text-anchor="middle" fill="red" font-size="12" font-family="Arial">E</text>

  <line x1="25" y1="70" x2="65" y2="45" stroke="red" stroke-width="2"/>
  <polygon points="68,43 63.5,43 66,47" fill="red"/>

  <line x1="107.5" y1="22.5" x2="142.5" y2="45" stroke="red" stroke-width="2"/>
  <polygon points="143.5,43 144,47 140.5,47" fill="red"/>

  <line x1="177.5" y1="80" x2="162.5" y2="117" stroke="red" stroke-width="2"/>
  <polygon points="165,116 162,119 161,115" fill="red"/>

  <line x1="135" y1="157.5" x2="95" y2="157.5" stroke="red" stroke-width="2"/>
  <polygon points="91,157.5 95,155 95,160" fill="red"/>

  <line x1="52.5" y1="150" x2="37.5" y2="112" stroke="red" stroke-width="2"/>
  <polygon points="36,113 39.5,112 36.5,108" fill="red"/>
</svg>
