<svg xmlns="http://www.w3.org/2000/svg" width="256" height="256" viewBox="0 0 256 256" version="1.1">
	<path d="M 115 0.561 C 113.625 0.796, 109.350 1.491, 105.500 2.105 C 95.734 3.662, 80.968 8.506, 71.508 13.254 C 59.027 19.519, 49.339 26.501, 38.692 36.904 C 19.869 55.297, 8.043 76.882, 2.354 103.232 C -0.135 114.759, -0.135 141.241, 2.354 152.768 C 8.041 179.109, 18.934 199.124, 37.905 218.095 C 53.583 233.773, 67.927 242.704, 88.340 249.497 C 154.825 271.622, 227.158 234.889, 249.491 167.660 C 251.347 162.072, 253.385 153.675, 254.019 149 C 254.653 144.325, 255.583 139.719, 256.086 138.764 C 257.364 136.337, 257.284 115.706, 256 116.500 C 255.401 116.870, 254.991 115.589, 254.978 113.309 C 254.905 100.406, 245.094 72.765, 235.759 59.161 L 232.782 54.823 234.481 49.422 C 239.921 32.126, 224.142 16.328, 206.538 21.446 C 201.155 23.011, 201.095 23.004, 197.310 20.414 C 186.702 13.154, 168.360 5.715, 153 2.444 C 145.857 0.922, 120.297 -0.344, 115 0.561 M 109.729 16.442 C 85.137 20.796, 66.145 30.710, 48.444 48.432 C 34.493 62.401, 25.918 76.162, 20.468 93.328 C 5.064 141.854, 23.465 194.064, 65.847 222.083 C 95.167 241.468, 130.812 246.068, 164.679 234.838 C 181.050 229.410, 196.476 219.462, 209.610 205.862 C 244.030 170.222, 250.782 115.932, 226.211 72.380 L 221.630 64.260 215.406 64.760 C 211.983 65.034, 207.855 64.797, 206.233 64.231 C 203.323 63.217, 202.914 63.573, 175.687 90.851 C 151.786 114.797, 148.231 118.746, 149.145 120.340 C 150.950 123.488, 150.409 133.282, 148.192 137.594 C 144.045 145.659, 136.772 150.200, 128 150.200 C 115.434 150.200, 105.800 140.566, 105.800 128 C 105.800 119.109, 110.502 111.753, 118.894 107.514 C 122.714 105.584, 132.756 105.190, 135.660 106.855 C 137.254 107.769, 141.203 104.214, 165.149 80.313 C 192.427 53.086, 192.783 52.677, 191.769 49.767 C 191.203 48.145, 190.964 44.033, 191.238 40.629 L 191.734 34.440 185.435 30.652 C 176.767 25.438, 166.544 21.284, 155.133 18.339 C 143.051 15.221, 121.670 14.328, 109.729 16.442 M 208.635 37.073 C 205.333 39.670, 205.022 45.022, 208 48 C 210.978 50.978, 216.330 50.667, 218.927 47.365 C 221.292 44.359, 221.451 43.084, 219.890 39.657 C 218.806 37.280, 215.232 35, 212.588 35 C 211.863 35, 210.084 35.933, 208.635 37.073 M 0.378 128 C 0.378 134.325, 0.541 136.912, 0.739 133.750 C 0.937 130.587, 0.937 125.412, 0.739 122.250 C 0.541 119.087, 0.378 121.675, 0.378 128 M 125.465 120.961 C 117.848 124.014, 119.844 135.333, 128 135.333 C 136.695 135.333, 137.964 122.928, 129.500 120.677 C 128.400 120.385, 126.584 120.512, 125.465 120.961" stroke="none" fill="#000000" fill-rule="evenodd"/>
</svg>