<svg xmlns="http://www.w3.org/2000/svg" width="256" height="256" viewBox="0 0 256 256" version="1.1">
	<path d="M 114 1.109 C 93.469 3.435, 73.746 10.713, 56 22.513 C 46.365 28.920, 28.920 46.365, 22.513 56 C 5.804 81.131, -2.001 111.186, 0.926 139.136 C 3.759 166.196, 11.481 185.744, 27.542 206.513 C 40.922 223.815, 59.785 238.227, 79.144 245.937 C 121.631 262.860, 167.154 257.296, 204 230.678 C 212.156 224.785, 227.801 208.495, 233.487 199.973 C 245.309 182.257, 253.083 161.146, 254.661 142.476 C 255.012 138.328, 255.682 134.697, 256.150 134.408 C 256.617 134.118, 257 130.732, 257 126.882 C 257 122.470, 256.630 120.110, 256 120.500 C 255.398 120.872, 255 119.554, 255 117.190 C 255 102.551, 247.009 77.784, 237.052 61.565 C 233.052 55.048, 232.861 54.407, 233.897 50.949 C 239.593 31.938, 224.069 16.405, 205.064 22.099 C 201.599 23.137, 200.968 22.938, 193.647 18.493 C 178.385 9.227, 159.752 3.075, 140.789 1.041 C 129.866 -0.130, 124.826 -0.117, 114 1.109 M 107.655 16.539 C 81.690 21.420, 56.920 36.126, 40.278 56.541 C 31.104 67.794, 22.056 85.484, 18.306 99.500 C 15.862 108.635, 15.631 111.101, 15.631 128 C 15.631 144.899, 15.862 147.365, 18.306 156.500 C 24.286 178.850, 38.703 201.181, 56.541 215.722 C 67.794 224.896, 85.484 233.944, 99.500 237.694 C 108.635 240.138, 111.101 240.369, 128 240.369 C 144.843 240.369, 147.376 240.134, 156.277 237.735 C 196.020 227.029, 227.053 195.993, 237.730 156.277 C 240.114 147.407, 240.360 144.783, 240.382 128 C 240.404 111.133, 240.175 108.651, 237.794 99.881 C 235.047 89.767, 230.051 78.031, 224.769 69.285 L 221.620 64.070 215.909 64.667 C 212.546 65.019, 208.833 64.789, 206.879 64.108 L 203.562 62.951 175.882 90.618 C 148.698 117.789, 148.221 118.336, 149.218 121.195 C 149.776 122.796, 150.042 126.742, 149.809 129.963 C 149.297 137.048, 145.936 142.691, 139.814 146.741 C 136.177 149.149, 134.673 149.500, 128 149.500 C 121.327 149.500, 119.823 149.149, 116.186 146.741 C 113.893 145.224, 110.776 142.107, 109.259 139.814 C 106.851 136.177, 106.500 134.673, 106.500 128 C 106.500 121.327, 106.851 119.823, 109.259 116.186 C 113.309 110.064, 118.952 106.703, 126.037 106.191 C 129.258 105.958, 133.204 106.224, 134.805 106.782 C 137.664 107.779, 138.211 107.302, 165.382 80.118 L 193.049 52.438 191.892 49.121 C 191.211 47.167, 190.981 43.454, 191.333 40.091 L 191.930 34.380 186.715 31.231 C 177.848 25.875, 166.165 20.931, 156.119 18.281 C 143.897 15.058, 120.088 14.202, 107.655 16.539 M 208.267 36.966 C 207.106 38.048, 205.868 39.840, 205.516 40.950 C 204.044 45.588, 210.412 51.956, 215.050 50.484 C 216.160 50.132, 217.952 48.894, 219.034 47.733 C 225.282 41.027, 214.973 30.718, 208.267 36.966 M 124.321 121.189 C 118.798 123.859, 119.282 132.632, 125.086 135.036 C 133.991 138.724, 140.152 125.124, 131.385 121.130 C 128.428 119.782, 127.210 119.792, 124.321 121.189 M 0.336 128 C 0.336 132.125, 0.513 133.813, 0.728 131.750 C 0.944 129.688, 0.944 126.313, 0.728 124.250 C 0.513 122.188, 0.336 123.875, 0.336 128" stroke="none" fill="#276bd4" fill-rule="evenodd"/>
</svg>