<?xml version="1.0" standalone="no"?>
<!DOCTYPE svg PUBLIC "-//W3C//DTD SVG 20010904//EN"
 "http://www.w3.org/TR/2001/REC-SVG-20010904/DTD/svg10.dtd">
<svg version="1.0" xmlns="http://www.w3.org/2000/svg"
 width="256.000000pt" height="256.000000pt" viewBox="0 0 256.000000 256.000000"
 preserveAspectRatio="xMidYMid meet">

<g transform="translate(0.000000,256.000000) scale(0.100000,-0.100000)"
fill="#000000" stroke="none">
<path d="M694 2355 c-94 -17 -134 -30 -225 -76 -104 -52 -188 -122 -287 -237
-103 -120 -122 -155 -122 -223 0 -113 70 -189 180 -197 90 -7 131 18 230 138
106 129 197 190 239 163 43 -28 -15 -558 -95 -872 -59 -230 -132 -389 -232
-503 -59 -67 -76 -112 -70 -180 9 -94 86 -166 187 -175 174 -17 393 315 507
766 57 229 104 544 120 821 4 63 13 127 20 141 18 36 61 49 156 49 89 0 128
-15 146 -55 9 -19 12 -192 12 -668 0 -538 2 -652 15 -700 65 -250 308 -398
571 -348 243 46 419 231 453 475 22 151 -49 255 -179 264 -116 8 -201 -65
-216 -187 -8 -73 -37 -119 -88 -142 -58 -26 -102 -24 -131 6 l-25 24 0 621 c0
689 -2 668 65 696 26 10 84 14 230 14 174 0 200 2 234 19 47 24 99 82 107 119
3 15 7 33 10 40 8 28 -18 110 -48 147 -66 79 -15 75 -903 74 -601 -1 -807 -4
-861 -14z"/>
</g>
</svg>
