<?xml version="1.0" standalone="no"?>
<!DOCTYPE svg PUBLIC "-//W3C//DTD SVG 20010904//EN"
 "http://www.w3.org/TR/2001/REC-SVG-20010904/DTD/svg10.dtd">
<svg version="1.0" xmlns="http://www.w3.org/2000/svg"
 width="256.000000pt" height="256.000000pt" viewBox="0 0 256.000000 256.000000"
 preserveAspectRatio="xMidYMid meet">

<g transform="translate(0.000000,256.000000) scale(0.100000,-0.100000)"
fill="#ffffff" stroke="none">
<path d="M12 2548 c-19 -19 -17 -2521 2 -2537 10 -8 350 -10 1271 -9 1186 3
1258 4 1269 21 9 15 -159 186 -1249 1277 -693 693 -1265 1260 -1270 1260 -6 0
-16 -5 -23 -12z m1248 -1293 l1185 -1185 -223 0 -222 0 0 123 c0 131 -9 162
-46 155 -17 -3 -19 -14 -22 -141 l-3 -137 -59 0 -59 0 -3 67 c-3 58 -6 68 -22
71 -29 6 -46 -25 -46 -85 l0 -53 -55 0 -55 0 0 135 c0 116 -2 137 -16 142 -9
3 -24 2 -33 -4 -13 -8 -16 -34 -19 -142 l-3 -131 -54 0 -55 0 0 59 c0 66 -18
93 -48 74 -12 -7 -18 -27 -20 -72 l-3 -61 -54 0 -55 0 0 123 c0 131 -9 162
-46 155 -17 -3 -19 -14 -22 -141 l-3 -137 -59 0 -59 0 -3 67 c-3 58 -6 68 -22
71 -29 6 -46 -25 -46 -85 l0 -53 -55 0 -55 0 0 135 c0 116 -2 137 -16 142 -9
3 -24 2 -33 -4 -13 -8 -16 -34 -19 -142 l-3 -131 -54 0 -55 0 0 59 c0 66 -18
93 -48 74 -12 -7 -18 -27 -20 -72 l-3 -61 -54 0 -55 0 0 123 c0 131 -9 162
-46 155 -17 -3 -19 -14 -22 -141 l-3 -137 -199 0 -200 0 0 200 0 199 137 3
c127 3 138 5 141 22 7 37 -24 46 -155 46 l-123 0 0 55 0 55 59 0 c66 0 93 18
74 48 -7 12 -27 18 -72 20 l-61 3 0 54 0 54 131 3 c108 3 134 6 142 19 6 9 7
24 4 33 -5 14 -26 16 -142 16 l-135 0 0 55 0 55 53 0 c60 0 91 17 85 46 -3 16
-13 19 -71 22 l-67 3 0 59 0 59 137 3 c127 3 138 5 141 22 7 37 -24 46 -155
46 l-123 0 0 55 0 55 59 0 c66 0 93 18 74 48 -7 12 -27 18 -72 20 l-61 3 0 54
0 54 131 3 c108 3 134 6 142 19 6 9 7 24 4 33 -5 14 -26 16 -142 16 l-135 0 0
55 0 55 53 0 c60 0 91 17 85 46 -3 16 -13 19 -71 22 l-67 3 0 59 0 59 137 3
c127 3 138 5 141 22 7 37 -24 46 -155 46 l-123 0 0 220 c0 121 1 220 3 220 1
0 535 -533 1187 -1185z"/>
<path d="M475 1418 c-3 -7 -4 -222 -3 -478 l3 -465 475 0 c458 0 475 1 478 19
3 14 -118 141 -454 477 -263 263 -467 459 -477 459 -10 0 -20 -6 -22 -12z
m455 -493 l385 -385 -388 0 -387 0 0 385 c0 212 1 385 3 385 1 0 175 -173 387
-385z"/>
</g>
</svg>
