<?xml version="1.0" standalone="no"?>
<!DOCTYPE svg PUBLIC "-//W3C//DTD SVG 20010904//EN"
 "http://www.w3.org/TR/2001/REC-SVG-20010904/DTD/svg10.dtd">
<svg version="1.0" xmlns="http://www.w3.org/2000/svg"
 width="256.000000pt" height="256.000000pt" viewBox="0 0 256.000000 256.000000"
 preserveAspectRatio="xMidYMid meet">

<g transform="translate(0.000000,256.000000) scale(0.100000,-0.100000)"
fill="#ffffff" stroke="none">
<path d="M995 2271 c-11 -5 -31 -21 -45 -36 l-25 -27 0 -209 0 -209 33 -32 32
-33 290 0 290 0 32 33 c31 31 33 37 37 118 l3 86 162 -4 c141 -3 167 -7 206
-26 71 -35 114 -75 150 -144 31 -57 34 -70 35 -148 0 -70 -5 -94 -25 -135 -49
-99 -146 -166 -260 -181 l-55 -7 23 25 c12 13 22 31 22 39 0 20 -20 39 -40 39
-20 0 -140 -120 -140 -141 0 -19 121 -139 141 -139 40 0 51 46 18 76 -21 19
-21 19 50 31 148 25 246 95 308 221 36 72 38 81 38 171 0 87 -3 102 -32 163
-44 93 -100 151 -191 196 l-76 37 -167 3 -167 4 -4 84 c-3 79 -5 85 -36 116
l-32 33 -278 2 c-152 1 -286 -2 -297 -6z m553 -83 c17 -17 17 -359 0 -376 -17
-17 -519 -17 -536 0 -17 17 -17 359 0 376 17 17 519 17 536 0z"/>
<path d="M1090 2105 c-26 -32 13 -81 48 -59 34 22 22 74 -18 74 -10 0 -23 -7
-30 -15z"/>
<path d="M1252 2108 c-6 -6 -12 -20 -12 -29 0 -32 25 -40 125 -37 80 2 100 6
109 21 8 12 8 22 0 35 -9 14 -29 18 -110 20 -69 2 -103 -1 -112 -10z"/>
<path d="M1092 1948 c-7 -7 -12 -20 -12 -29 0 -35 23 -40 205 -37 157 3 179 5
189 21 8 12 8 22 0 35 -10 15 -32 17 -190 20 -131 2 -183 -1 -192 -10z"/>
<path d="M672 2128 c-18 -18 -15 -43 9 -64 21 -19 19 -19 -181 -24 -179 -4
-204 -7 -214 -22 -8 -13 -8 -23 0 -35 10 -16 35 -19 214 -23 200 -5 202 -5
181 -24 -33 -30 -22 -76 19 -76 20 0 140 120 140 141 0 19 -121 139 -141 139
-8 0 -20 -5 -27 -12z"/>
<path d="M995 1551 c-11 -5 -31 -21 -45 -36 -22 -23 -25 -38 -28 -110 l-4 -83
-166 -4 c-163 -3 -169 -4 -234 -35 -93 -44 -151 -100 -196 -191 -35 -72 -37
-81 -37 -172 0 -91 2 -100 38 -172 62 -126 160 -196 308 -221 71 -12 71 -12
50 -31 -33 -30 -22 -76 19 -76 20 0 140 120 140 141 0 19 -121 139 -141 139
-19 0 -39 -20 -39 -39 0 -8 10 -26 23 -39 l22 -25 -55 7 c-114 15 -211 82
-260 181 -35 71 -35 198 0 270 31 64 91 124 155 155 45 22 66 24 211 28 l162
4 3 -86 c4 -81 6 -87 37 -118 l32 -33 290 0 290 0 32 33 33 32 0 210 0 210
-33 32 -32 33 -278 2 c-152 1 -286 -2 -297 -6z m553 -83 c17 -17 17 -359 0
-376 -17 -17 -519 -17 -536 0 -17 17 -17 359 0 376 17 17 519 17 536 0z"/>
<path d="M1090 1385 c-26 -32 13 -81 48 -59 34 22 22 74 -18 74 -10 0 -23 -7
-30 -15z"/>
<path d="M1252 1388 c-6 -6 -12 -20 -12 -29 0 -32 25 -40 125 -37 80 2 100 6
109 21 8 12 8 22 0 35 -9 14 -29 18 -110 20 -69 2 -103 -1 -112 -10z"/>
<path d="M1092 1228 c-7 -7 -12 -20 -12 -29 0 -35 23 -40 205 -37 157 3 179 5
189 21 8 12 8 22 0 35 -10 15 -32 17 -190 20 -131 2 -183 -1 -192 -10z"/>
<path d="M995 831 c-11 -5 -31 -21 -45 -36 l-25 -27 0 -209 0 -209 33 -32 32
-33 290 0 290 0 32 33 33 32 0 210 0 210 -33 32 -32 33 -278 2 c-152 1 -286
-2 -297 -6z m553 -83 c17 -17 17 -359 0 -376 -17 -17 -519 -17 -536 0 -17 17
-17 359 0 376 17 17 519 17 536 0z"/>
<path d="M1323 608 l-83 -83 -43 43 c-23 23 -50 42 -58 42 -20 0 -39 -20 -39
-40 0 -19 120 -140 139 -140 20 0 221 201 221 220 0 20 -19 40 -40 40 -8 0
-52 -37 -97 -82z"/>
</g>
</svg>
